HIERARCHY
ROOT Hips
{
	OFFSET -0.001795 -0.223333 0.028219
	CHANNELS 6 Xposition Yposition Zposition Zrotation Yrotation Xrotation 
	JOINT LeftUpLeg
	{
		OFFSET 0.069520 -0.091406 -0.006815
		CHANNELS 3 Zrotation Yrotation Xrotation
		JOINT LeftLeg
		{
			OFFSET 0.034277 -0.375199 -0.004496
			CHANNELS 3 Zrotation Yrotation Xrotation
			JOINT LeftFoot
			{
				OFFSET -0.013596 -0.397961 -0.043693
				CHANNELS 3 Zrotation Yrotation Xrotation
				JOINT LeftToe
				{
					OFFSET 0.026358 -0.055791 0.119288
					CHANNELS 3 Zrotation Yrotation Xrotation
					End Site
					{
						OFFSET 0.000000 0.000000 0.000000
					}
				}
			}
		}
	}
	JOINT RightUpLeg
	{
		OFFSET -0.067670 -0.090522 -0.004320
		CHANNELS 3 Zrotation Yrotation Xrotation
		JOINT RightLeg
		{
			OFFSET -0.038290 -0.382569 -0.008850
			CHANNELS 3 Zrotation Yrotation Xrotation
			JOINT RightFoot
			{
				OFFSET 0.015774 -0.398415 -0.042312
				CHANNELS 3 Zrotation Yrotation Xrotation
				JOINT RightToe
				{
					OFFSET -0.025372 -0.048144 0.123348
					CHANNELS 3 Zrotation Yrotation Xrotation
					End Site
					{
						OFFSET 0.000000 0.000000 0.000000
					}
				}
			}
		}
	}
	JOINT Spine
	{
		OFFSET -0.002533 0.108963 -0.026696
		CHANNELS 3 Zrotation Yrotation Xrotation
		JOINT Spine1
		{
			OFFSET 0.005487 0.135180 0.001092
			CHANNELS 3 Zrotation Yrotation Xrotation
			JOINT Spine2
			{
				OFFSET 0.001457 0.052922 0.025425
				CHANNELS 3 Zrotation Yrotation Xrotation
				JOINT Neck
				{
					OFFSET -0.002778 0.213870 -0.042857
					CHANNELS 3 Zrotation Yrotation Xrotation
					JOINT Head
					{
						OFFSET 0.005152 0.064970 0.051349
						CHANNELS 3 Zrotation Yrotation Xrotation
						End Site
						{
							OFFSET 0.000000 0.000000 0.000000
						}
					}
				}
				JOINT LeftShoulder
				{
					OFFSET 0.078845 0.121749 -0.034090
					CHANNELS 3 Zrotation Yrotation Xrotation
					JOINT LeftArm
					{
						OFFSET 0.090977 0.030469 -0.008868
						CHANNELS 3 Zrotation Yrotation Xrotation
						JOINT LeftForeArm
						{
							OFFSET 0.259612 -0.012772 -0.027456
							CHANNELS 3 Zrotation Yrotation Xrotation
							JOINT LeftHand
							{
								OFFSET 0.249234 0.008986 -0.001171
								CHANNELS 3 Zrotation Yrotation Xrotation
								End Site
								{
									OFFSET 0.000000 0.000000 0.000000
								}
							}
						}
					}
				}
				JOINT RightShoulder
				{
					OFFSET -0.081759 0.118833 -0.038615
					CHANNELS 3 Zrotation Yrotation Xrotation
					JOINT RightArm
					{
						OFFSET -0.096012 0.032551 -0.009143
						CHANNELS 3 Zrotation Yrotation Xrotation
						JOINT RightForeArm
						{
							OFFSET -0.253742 -0.013329 -0.021401
							CHANNELS 3 Zrotation Yrotation Xrotation
							JOINT RightHand
							{
								OFFSET -0.255298 0.007772 -0.005559
								CHANNELS 3 Zrotation Yrotation Xrotation
								End Site
								{
									OFFSET 0.000000 0.000000 0.000000
								}
							}
						}
					}
				}
			}
		}
	}
}
MOTION
Frames: 12
Frame Time: 0.050000
0.000000 0.948771 0.000000 -1.245284 1.036521 0.073576 6.964143 0.031298 4.756902 -2.394163 0.274209 -1.335784 6.540550 15.523085 15.414371 0.000000 0.000000 0.000000 -3.483515 -0.150532 3.141530 -0.495904 0.022579 -0.712159 -4.119744 -13.117504 15.467710 0.000000 0.000000 0.000000 -0.698188 -0.099704 3.009585 3.458522 -0.262703 -23.140325 -1.302531 -0.633934 29.753517 1.885386 0.440354 -25.988966 0.000000 0.000000 0.000000 -24.628062 1.944161 -2.576643 -54.758672 -4.076178 -7.356980 -9.716668 -26.102742 3.736545 0.000000 0.000000 0.000000 15.919961 1.585545 0.080678 61.821496 3.464914 -7.088841 5.711428 27.590196 2.728340 0.000000 0.000000 0.000000 
0.000081 0.947677 0.001647 -1.438107 0.711547 0.494956 7.274107 0.016193 4.860448 -2.662793 0.308258 -2.009638 6.754040 15.787030 15.270320 0.000000 0.000000 0.000000 -3.349624 -0.115435 2.660235 -0.426259 0.021118 -0.572203 -4.037274 -12.960077 15.100326 0.000000 0.000000 0.000000 -0.430693 -0.089553 2.501393 3.253128 -0.215906 -23.165398 -1.500275 -0.855119 29.809925 1.709526 0.510897 -26.483095 0.000000 0.000000 0.000000 -25.329186 3.401166 -3.427383 -54.199555 -3.784291 -7.444978 -9.735978 -25.972574 3.751166 0.000000 0.000000 0.000000 14.934200 1.499862 -0.006613 63.410796 2.251778 -7.888209 5.498228 29.277737 2.880930 0.000000 0.000000 0.000000 
0.000039 0.947356 0.002936 -1.055177 0.610022 0.567279 7.047506 0.021779 4.496487 -3.020242 0.336088 -1.322760 6.812583 15.858312 15.225492 0.000000 0.000000 0.000000 -3.752546 -0.110806 2.891598 -0.480306 0.008478 -0.984564 -4.008514 -12.903472 14.941887 0.000000 0.000000 0.000000 -0.712139 -0.066639 2.115261 2.915451 -0.129670 -23.223669 -1.729416 -1.363022 29.859806 1.387466 0.572604 -26.121037 0.000000 0.000000 0.000000 -25.129136 3.379083 -3.181475 -54.407409 -3.658105 -7.578632 -8.092025 -24.968672 3.254044 0.000000 0.000000 0.000000 15.475695 2.130159 0.153928 63.032526 1.754338 -8.125197 4.501340 28.063533 2.445559 0.000000 0.000000 0.000000 
-0.000159 0.946896 0.004177 -1.077139 0.330811 0.388200 7.386500 0.026090 5.003745 -3.603147 0.395249 -1.623580 6.900341 15.963327 15.217266 0.000000 0.000000 0.000000 -3.657797 -0.131761 3.151647 -0.653136 0.023101 -1.029747 -3.893892 -12.705748 14.719390 0.000000 0.000000 0.000000 -0.896526 -0.054949 1.907345 3.266769 -0.205204 -23.548616 -2.031787 -1.729494 30.112831 1.686137 0.252961 -25.488375 0.000000 0.000000 0.000000 -26.004084 4.454417 -3.765567 -54.096692 -2.902564 -7.925024 -7.912094 -24.370649 3.165444 0.000000 0.000000 0.000000 14.955860 2.471272 0.242234 63.341857 1.347652 -8.420745 4.660910 28.210707 2.469470 0.000000 0.000000 0.000000 
-0.000413 0.947141 0.005112 -1.109122 0.403398 0.233535 7.279329 0.038906 5.231340 -3.299157 0.366233 -1.646390 6.855205 15.908279 15.266809 0.000000 0.000000 0.000000 -3.683383 -0.165527 3.628161 -0.508866 -0.009462 -1.451886 -3.869983 -12.678983 14.869954 0.000000 0.000000 0.000000 -0.907197 -0.061533 2.101291 3.521087 -0.285286 -23.206092 -2.358148 -1.687705 29.430679 1.711790 0.213489 -24.755835 0.000000 0.000000 0.000000 -26.052182 4.443482 -3.831879 -53.962917 -2.338324 -8.066282 -7.801698 -23.779804 3.032754 0.000000 0.000000 0.000000 14.648050 2.247061 0.144639 63.467619 0.678008 -8.708194 5.191346 28.067472 2.565587 0.000000 0.000000 0.000000 
-0.000512 0.947345 0.005635 -1.155743 0.233010 0.243971 7.188501 0.048427 5.237107 -3.084350 0.346614 -1.562680 6.950598 16.041532 15.367555 0.000000 0.000000 0.000000 -3.758109 -0.173530 3.835281 -0.314332 -0.044268 -1.837144 -3.739555 -12.491093 14.977202 0.000000 0.000000 0.000000 -1.006217 -0.049423 1.810284 3.591551 -0.305309 -23.230064 -2.447526 -1.733346 29.634761 1.847438 0.103480 -24.744784 0.000000 0.000000 0.000000 -25.985488 4.558775 -3.839673 -54.014481 -2.056217 -8.219440 -7.554355 -23.261442 2.913968 0.000000 0.000000 0.000000 14.270896 2.339452 0.184903 63.561507 0.377060 -8.911780 5.132835 28.065015 2.543749 0.000000 0.000000 0.000000 
-0.000554 0.947347 0.005784 -1.193819 0.265141 0.208535 7.270405 0.042936 5.227022 -3.138770 0.351001 -1.470553 6.935864 16.020664 15.337872 0.000000 0.000000 0.000000 -3.674278 -0.173776 3.758905 -0.376108 -0.028721 -1.605870 -3.769142 -12.533586 14.945590 0.000000 0.000000 0.000000 -1.022152 -0.048159 1.779204 3.674320 -0.340267 -22.969766 -2.548922 -1.803718 29.457615 1.971606 0.020420 -24.723225 0.000000 0.000000 0.000000 -26.043258 4.714198 -3.938168 -53.780621 -1.518527 -8.405793 -7.905822 -23.062048 2.953892 0.000000 0.000000 0.000000 14.207774 2.399449 0.203275 63.265351 0.230609 -8.935880 5.368074 28.356147 2.619349 0.000000 0.000000 0.000000 
-0.000508 0.947075 0.005767 -1.323929 0.072178 0.224380 7.241902 0.044402 5.067548 -2.896310 0.326188 -1.149095 7.097886 16.231896 15.240020 0.000000 0.000000 0.000000 -3.567025 -0.161246 3.526435 -0.357934 -0.016611 -1.279065 -3.706477 -12.422210 14.791675 0.000000 0.000000 0.000000 -0.822643 -0.046148 1.575579 3.554298 -0.326617 -22.745746 -2.413135 -1.353640 29.469165 2.062004 0.045294 -24.963765 0.000000 0.000000 0.000000 -25.736349 4.213998 -3.699360 -53.648773 -1.334970 -8.438815 -8.490831 -22.956286 3.032693 0.000000 0.000000 0.000000 14.090003 2.328999 0.240718 62.889044 0.052388 -8.967749 5.924813 29.024397 2.845989 0.000000 0.000000 0.000000 
-0.000475 0.946979 0.005545 -1.381285 0.024116 0.208716 7.265759 0.045244 5.095737 -2.843570 0.321592 -1.174282 7.132631 16.278003 15.212726 0.000000 0.000000 0.000000 -3.484084 -0.171939 3.618243 -0.410678 -0.019151 -1.452088 -3.671927 -12.371258 14.804675 0.000000 0.000000 0.000000 -0.799612 -0.044690 1.515635 3.568474 -0.340754 -22.577555 -2.195570 -1.052689 29.369241 2.012859 0.113241 -24.834726 0.000000 0.000000 0.000000 -25.680806 3.850891 -3.561072 -53.352705 -1.159655 -8.445164 -9.275418 -22.967769 3.173029 0.000000 0.000000 0.000000 14.245753 2.372338 0.304810 62.134519 -0.218488 -8.990121 6.643633 30.135852 3.168015 0.000000 0.000000 0.000000 
-0.000460 0.946871 0.005095 -1.360642 -0.151672 0.134806 7.203232 0.055059 5.114819 -2.818708 0.319114 -1.053616 7.228453 16.403576 15.213254 0.000000 0.000000 0.000000 -3.749911 -0.150336 3.539106 -0.019993 -0.048301 -1.266609 -3.589236 -12.228569 14.685344 0.000000 0.000000 0.000000 -0.848035 -0.039789 1.396787 3.606626 -0.375085 -22.206011 -2.066228 -0.539881 29.091074 1.950125 0.236726 -24.933213 0.000000 0.000000 0.000000 -25.224266 3.538689 -3.465206 -53.183380 -0.925439 -8.451441 -10.686558 -22.903988 3.420571 0.000000 0.000000 0.000000 14.318830 2.365751 0.367111 61.078155 -0.876995 -9.133497 8.969840 32.450402 4.121270 0.000000 0.000000 0.000000 
-0.000431 0.946889 0.004328 -1.343318 -0.365766 0.089916 7.237378 0.064013 5.277019 -2.968756 0.337357 -1.266949 7.308173 16.510687 15.307933 0.000000 0.000000 0.000000 -3.830726 -0.166273 3.877731 0.033782 -0.079722 -1.935234 -3.435056 -12.003537 14.777446 0.000000 0.000000 0.000000 -0.872870 -0.037290 1.334217 3.559995 -0.367470 -22.192344 -1.866926 -0.444221 29.017478 1.629835 0.429766 -25.000758 0.000000 0.000000 0.000000 -24.827739 3.190997 -3.194516 -52.614824 -1.081762 -8.292133 -12.952303 -22.849689 3.865703 0.000000 0.000000 0.000000 14.146667 2.377762 0.369356 60.316751 -0.793605 -8.979270 11.444724 34.713739 5.208162 0.000000 0.000000 0.000000 
-0.000267 0.946822 0.003197 -1.106165 -0.374503 0.200757 6.865923 0.083131 5.232066 -2.804339 0.323574 -1.533934 7.306275 16.510381 15.374611 0.000000 0.000000 0.000000 -4.380270 -0.129670 3.831570 0.530135 -0.132755 -2.200710 -3.417308 -11.970494 14.764894 0.000000 0.000000 0.000000 -1.235714 -0.016289 0.901474 3.550967 -0.391601 -21.730571 -1.660079 -0.432077 28.700113 1.485294 0.528502 -25.074605 0.000000 0.000000 0.000000 -23.893520 2.637345 -2.774196 -52.276124 -1.506068 -8.017385 -15.760135 -23.244815 4.518081 0.000000 0.000000 0.000000 14.360937 2.982320 0.652072 59.049392 -0.141600 -8.449667 14.686724 38.958097 7.095062 0.000000 0.000000 0.000000 
